<?xml version="1.0" encoding="utf-8"?>
<!-- Svg Vector Icons : http://www.onlinewebfonts.com/icon -->
<svg
version="1.1"
xmlns="http://www.w3.org/2000/svg"
xmlns:xlink="http://www.w3.org/1999/xlink"
x="0px"
y="0px"
viewBox="0 0 256 256"
enable-background="new 0 0 256 256"
xml:space="preserve">
    <g><g><g>
        <path
        fill="#E67E22"
        d="M87.6,10c-13,2.1-22.8,10.7-28.8,24.9c-1.2,3-1.6,3.4-2.7,3.4c-2.2,0-9.2,1.9-12.4,3.3c-14.9,6.6-22.6,23.1-18.4,39.5c4.6,18.3,24.5,31.8,61.6,41.6l7.4,2H82.8c-6.3,0.1-14,0.3-17.2,0.6c-22.1,1.9-38.2,7.9-46.7,17.2c-9,10-11.6,26-6.1,37.7c3.3,6.9,9.4,12.7,17.2,16.6l4.6,2.3L35,202c2,17,11.8,29.6,26.1,33.4c4.3,1.2,12.7,1.1,17.1-0.1c20.4-5.5,32.7-24.8,40.6-63.8l1.6-8v17.2c0,14.1,0.2,18.2,0.9,22.9c3.1,19.5,9.2,31.4,19.3,37.5c4.3,2.6,10.4,4.6,15.6,5.1c16.6,1.6,31.2-7,38.3-22.4c1.4-3.2,1.5-3.2,3.8-3.5c11.6-1.6,21.7-6.5,27.1-13.2c9.9-12.1,9.6-29.7-0.6-43.2c-10-13.1-29.2-21.8-63.6-28.7l-9.2-1.9l20.3,0.1c20.5,0,23.9-0.2,33.5-2.1c17.6-3.5,30.4-12,36.4-24.2c9-18.3,1.1-36.4-19.9-45.1c-1.8-0.8-3.4-1.5-3.5-1.5c-0.1-0.1-0.5-2-0.9-4.2c-1.4-8.2-4.8-14.8-10.4-20.3c-10.1-9.9-26.4-12.4-39.6-6.1c-5.1,2.5-8.9,5.6-12.8,10.5c-9.3,11.4-15.5,25.8-21.6,49.5l-2.2,8.6l0.4-7.1c0.6-11.4,0.4-31.8-0.4-37.4c-1.8-13.9-6.3-24.9-12.9-32c-5.3-5.6-11.2-9.2-17.9-11C96.9,9.9,90.8,9.5,87.6,10z M131.2,99.6c-0.2,0.4-0.3,0.3-0.3-0.3c-0.1-0.6,0.1-0.9,0.3-0.7C131.3,98.8,131.4,99.3,131.2,99.6z"
        />
    </g></g></g>
</svg>